<svg xmlns="http://www.w3.org/2000/svg" width="106" height="40" viewBox="0 0 106 40">
    <g fill="none" fill-rule="nonzero">
        <path fill="#00A1DF" d="M7.635 18.705c-1.001 0-1.783.395-2.344 1.184-.561.789-.842 1.876-.842 3.263 0 2.882 1.14 4.323 3.42 4.323a7.25 7.25 0 0 0 2.003-.276 20.636 20.636 0 0 0 1.95-.666v3.422c-1.3.553-2.77.83-4.41.83-2.352 0-4.154-.656-5.407-1.967C.75 27.506.125 25.61.125 23.13c0-1.55.303-2.912.91-4.087a6.37 6.37 0 0 1 2.621-2.71c1.14-.632 2.48-.948 4.022-.948 1.683 0 3.292.352 4.826 1.055l-1.29 3.187c-.575-.26-1.15-.478-1.725-.656a6.254 6.254 0 0 0-1.854-.267zM21.598 30.796l-.77-1.511h-.082c-.541.658-1.093 1.108-1.654 1.35-.562.242-1.288.363-2.178.363-1.096 0-1.96-.323-2.59-.968-.63-.645-.945-1.552-.945-2.72 0-1.217.432-2.122 1.295-2.717.863-.595 2.112-.929 3.75-1.003l1.941-.06v-.161c0-.941-.472-1.412-1.418-1.412-.849 0-1.928.283-3.236.847l-1.16-2.6c1.355-.685 3.068-1.028 5.136-1.028 1.493 0 2.65.363 3.467 1.088.819.726 1.228 1.74 1.228 3.044v7.488h-2.784zm-2.979-2.58c.486 0 .903-.15 1.248-.453.346-.302.52-.696.52-1.18v-.887l-.925.041c-1.322.047-1.983.524-1.983 1.431 0 .7.38 1.048 1.14 1.048zM33.181 19.005c.35 0 .681.028.997.082l.225.04-.36 3.774c-.328-.082-.783-.123-1.366-.123-.877 0-1.513.2-1.91.599-.398.399-.596.973-.596 1.723v5.696h-4.017V19.21h2.99l.626 1.85h.195a4.01 4.01 0 0 1 1.402-1.487c.6-.379 1.204-.568 1.814-.568zM39.518 30.796h-4.017V15.422h4.017v15.374zM41.694 17.132c0-.579.167-1.01.503-1.294.336-.283.877-.425 1.623-.425.747 0 1.291.145 1.634.435.343.29.514.718.514 1.284 0 1.134-.716 1.7-2.148 1.7-1.418 0-2.126-.566-2.126-1.7zm4.12 13.664h-4.017V19.197h4.017v11.599zM57.082 27.155c0 1.202-.425 2.111-1.274 2.726-.85.614-2.069.922-3.658.922-.863 0-1.613-.045-2.25-.135a9.79 9.79 0 0 1-1.951-.49v-3.102c.623.264 1.306.482 2.05.654.742.172 1.405.257 1.987.257.87 0 1.305-.19 1.305-.574 0-.199-.122-.376-.365-.53-.243-.156-.95-.458-2.121-.908-1.068-.423-1.815-.903-2.24-1.442-.425-.538-.637-1.22-.637-2.047 0-1.043.418-1.856 1.254-2.438.835-.581 2.017-.872 3.544-.872.767 0 1.488.08 2.163.243.674.162 1.375.398 2.1.708l-1.088 2.498c-.535-.231-1.1-.428-1.696-.59-.595-.161-1.082-.243-1.458-.243-.658 0-.986.156-.986.466 0 .192.114.356.344.491.23.135.892.411 1.987.828.816.323 1.424.64 1.824.951.401.31.696.676.884 1.095.187.42.282.931.282 1.532zM64.487 27.841c.54 0 1.188-.133 1.941-.4v2.916a7.946 7.946 0 0 1-1.546.495c-.49.1-1.063.149-1.72.149-1.35 0-2.322-.33-2.918-.987-.596-.658-.894-1.669-.894-3.032v-4.776h-1.407V20.58l1.788-1.258 1.037-2.433h2.63v2.32h2.856v2.997h-2.856v4.51c0 .75.363 1.125 1.089 1.125z"/>
        <path fill="#FFC627" d="M67.433 28.905c0-.606.187-1.074.56-1.403.374-.33.916-.494 1.628-.494.678 0 1.199.165 1.562.494.363.33.544.797.544 1.403 0 .592-.186 1.056-.56 1.388-.372.333-.888.499-1.545.499-.678 0-1.213-.165-1.603-.495-.39-.328-.586-.793-.586-1.392zM87.783 30.796v-6.3c0-.783-.107-1.371-.323-1.763-.216-.393-.557-.588-1.022-.588-.617 0-1.069.262-1.356.787-.288.526-.432 1.347-.432 2.465v5.4h-4.028v-6.3c0-.784-.102-1.372-.308-1.764-.205-.392-.537-.588-.996-.588-.63 0-1.09.28-1.377.839-.288.559-.432 1.472-.432 2.74v5.073h-4.016V19.21h3.03l.504 1.431h.236a2.999 2.999 0 0 1 1.34-1.217c.586-.279 1.252-.419 1.999-.419 1.678 0 2.856.508 3.534 1.524h.319c.328-.477.786-.85 1.371-1.12a4.58 4.58 0 0 1 1.937-.404c1.376 0 2.394.351 3.051 1.053.658.703.987 1.77.987 3.202v7.536h-4.018zM92.6 19.21h4.232l1.973 6.647c.096.348.161.766.195 1.257h.082c.055-.47.138-.882.247-1.237l2.024-6.667h4.099l-4.603 12.323c-.589 1.567-1.313 2.675-2.173 3.323-.86.648-1.981.971-3.364.971a8.096 8.096 0 0 1-1.644-.174v-3.139c.363.082.777.123 1.243.123.356 0 .668-.069.935-.205.267-.136.5-.329.699-.578.198-.25.41-.656.636-1.222L92.6 19.21z"/>
        <path fill="#00A1DF" d="M0 15.385s10.996-9.686 33.982-7.923c0 0 13.276-7.655 20.548-7.458 0 0 41.041 1.089 51.111 15.38 0 0-28.116-7.523-41.452-3.827 0 0 8.673-5.062 25.726-2.65 0 0-12.457-6.138-37.597-6.853 0 0-8.679.84-16.96 7.611-.119.096-17.282-3.157-35.358 5.72z"/>
        <g>
            <path fill="#77777A" d="M20.092 39.718l-.916-2.894h-.023c.033.589.049.981.049 1.178v1.716h-.72v-3.689h1.098l.9 2.821h.016l.955-2.82h1.098v3.688h-.752v-1.746c0-.082.001-.177.004-.285.003-.108.015-.394.035-.858h-.023l-.981 2.889h-.74zM25.837 39.718l-.276-.878h-1.388l-.276.878h-.869l1.343-3.704h.987l1.348 3.704h-.87zm-.47-1.534c-.254-.796-.398-1.245-.43-1.35a3.736 3.736 0 0 1-.069-.247c-.057.216-.221.748-.492 1.597h.992zM27.184 39.718v-3.689h.807v3.043h1.544v.646zM32.525 39.718l-.276-.878h-1.387l-.276.878h-.869l1.343-3.704h.987l1.348 3.704h-.87zm-.468-1.534c-.255-.796-.399-1.245-.431-1.35a3.736 3.736 0 0 1-.069-.247c-.057.216-.221.748-.492 1.597h.992zM35.058 37.548l.794-1.519h.869l-1.262 2.253v1.436h-.802v-1.41l-1.263-2.279h.875zM39.446 38.693c0 .333-.124.596-.371.788-.248.191-.591.287-1.032.287a2.49 2.49 0 0 1-1.078-.222v-.727c.257.111.474.19.652.235.178.046.341.068.488.068.177 0 .313-.033.408-.098a.332.332 0 0 0 .142-.293.317.317 0 0 0-.063-.193.697.697 0 0 0-.183-.163 4.744 4.744 0 0 0-.493-.25 2.346 2.346 0 0 1-.524-.305 1.144 1.144 0 0 1-.278-.34.945.945 0 0 1-.104-.454c0-.327.114-.583.342-.77.228-.186.544-.28.946-.28.198 0 .387.023.566.068.18.046.368.11.564.192l-.26.608a3.852 3.852 0 0 0-.504-.169 1.663 1.663 0 0 0-.392-.048c-.153 0-.27.035-.351.104a.336.336 0 0 0-.123.27c0 .069.017.129.05.18.033.051.085.1.157.149.072.048.243.134.512.258.356.165.6.33.731.496a.95.95 0 0 1 .198.61zM40.135 39.718v-3.689h.807v3.689zM44.23 39.718l-.276-.878h-1.388l-.276.878h-.869l1.343-3.704h.987l1.348 3.704h-.87zm-.47-1.534c-.254-.796-.398-1.245-.43-1.35a3.736 3.736 0 0 1-.069-.247c-.057.216-.221.748-.492 1.597h.992zM46.155 36.03l.037.055c-.087.331-.24.734-.458 1.208h-.57c.12-.497.206-.919.26-1.264h.731zM48.98 38.693c0 .333-.124.596-.372.788-.247.191-.59.287-1.032.287a2.49 2.49 0 0 1-1.077-.222v-.727c.256.111.474.19.652.235.178.046.34.068.488.068.177 0 .312-.033.407-.098a.332.332 0 0 0 .142-.293.317.317 0 0 0-.062-.193.697.697 0 0 0-.184-.163 4.744 4.744 0 0 0-.493-.25 2.346 2.346 0 0 1-.523-.305 1.144 1.144 0 0 1-.279-.34.945.945 0 0 1-.104-.454c0-.327.114-.583.343-.77.228-.186.543-.28.946-.28.197 0 .386.023.566.068.18.046.367.11.563.192l-.26.608a3.863 3.863 0 0 0-.504-.169 1.663 1.663 0 0 0-.391-.048c-.153 0-.27.035-.352.104a.336.336 0 0 0-.122.27c0 .069.016.129.05.18.032.051.085.1.157.149.072.048.242.134.511.258.356.165.6.33.732.496a.95.95 0 0 1 .197.61z"/>
            <path fill="#00A1DF" d="M54.429 39.718h-1.025l-1.656-2.79h-.023c.033.492.05.844.05 1.054v1.735h-.721V36.03h1.017l1.653 2.762h.018c-.026-.48-.04-.818-.04-1.017V36.03h.727v3.688zM58.707 37.869c0 .61-.156 1.08-.468 1.407-.313.328-.76.492-1.343.492s-1.03-.164-1.343-.492c-.312-.327-.468-.799-.468-1.412 0-.614.156-1.083.47-1.407.313-.323.761-.485 1.346-.485.585 0 1.032.163 1.342.489.31.327.464.796.464 1.408zm-2.777 0c0 .412.08.722.243.93.16.21.402.313.723.313.643 0 .965-.414.965-1.243 0-.83-.32-1.246-.96-1.246-.32 0-.563.105-.726.314-.163.21-.245.52-.245.932zM59.188 39.357c0-.141.04-.248.118-.32.078-.073.191-.109.34-.109a.47.47 0 0 1 .335.111c.079.074.118.18.118.318 0 .133-.04.237-.12.314a.462.462 0 0 1-.332.115.475.475 0 0 1-.338-.112.412.412 0 0 1-.12-.317zM62.473 39.718h-.805v-2.134l.008-.351.013-.383c-.133.13-.226.214-.278.255l-.437.34-.388-.47 1.225-.945h.661v3.688z"/>
            <path fill="#77777A" d="M66.66 36.627c-.304 0-.539.111-.705.332-.167.221-.25.53-.25.925 0 .822.318 1.233.955 1.233.267 0 .59-.065.97-.194v.656c-.312.126-.66.189-1.045.189-.554 0-.977-.163-1.27-.488-.294-.326-.44-.793-.44-1.402 0-.383.071-.72.215-1.008.144-.288.351-.509.62-.663.27-.154.587-.23.95-.23.37 0 .74.086 1.114.259l-.26.636a4.368 4.368 0 0 0-.43-.172 1.322 1.322 0 0 0-.424-.073zM70.77 39.718l-.276-.878h-1.387l-.276.878h-.87l1.344-3.704h.986l1.348 3.704h-.87zm-.469-1.534c-.255-.796-.399-1.245-.43-1.35a3.448 3.448 0 0 1-.07-.247 49.29 49.29 0 0 1-.491 1.597h.991zM72.924 38.303v1.415h-.806v-3.689h1.109c.516 0 .9.092 1.147.274.248.183.372.46.372.831 0 .217-.061.41-.184.58-.124.168-.298.3-.524.396.573.83.946 1.365 1.12 1.607h-.896l-.908-1.415h-.43zm0-.636h.26c.256 0 .444-.041.566-.124.121-.082.182-.212.182-.388 0-.175-.062-.3-.186-.374-.124-.074-.317-.11-.577-.11h-.244v.996zM79.267 38.693c0 .333-.123.596-.37.788-.248.191-.592.287-1.033.287a2.49 2.49 0 0 1-1.077-.222v-.727c.257.111.474.19.652.235.178.046.34.068.488.068.177 0 .313-.033.407-.098.095-.066.142-.163.142-.293a.315.315 0 0 0-.063-.193.695.695 0 0 0-.183-.163 4.715 4.715 0 0 0-.493-.25 2.343 2.343 0 0 1-.523-.305 1.148 1.148 0 0 1-.279-.34.948.948 0 0 1-.104-.454c0-.327.114-.583.342-.77.228-.186.544-.28.946-.28.198 0 .387.023.566.068.18.046.368.11.564.192l-.26.608a3.85 3.85 0 0 0-.504-.169 1.663 1.663 0 0 0-.391-.048c-.153 0-.27.035-.352.104a.336.336 0 0 0-.122.27c0 .069.016.129.05.18a.53.53 0 0 0 .157.149c.072.048.242.134.511.258.356.165.6.33.732.496a.95.95 0 0 1 .197.61zM79.957 39.718v-3.689h.807v3.689zM83.19 39.718h-.807V36.68H81.35v-.65h2.873v.65H83.19v3.038zM87 39.718h-2.192v-3.689H87v.641h-1.385v.81h1.289v.64h-1.289v.952H87z"/>
        </g>
    </g>
</svg>
