<?xml version="1.0" encoding="utf-8"?>
<!-- Generator: Adobe Illustrator 17.0.1, SVG Export Plug-In . SVG Version: 6.00 Build 0)  -->
<!DOCTYPE svg PUBLIC "-//W3C//DTD SVG 1.1//EN" "http://www.w3.org/Graphics/SVG/1.1/DTD/svg11.dtd">
<svg version="1.1" id="Layer_1" xmlns="http://www.w3.org/2000/svg" xmlns:xlink="http://www.w3.org/1999/xlink" x="0px" y="0px"
	 width="20px" height="20px" viewBox="0 0 20 20" enable-background="new 0 0 20 20" xml:space="preserve">
<g>
	<polygon fill="#606468" points="17.162,8.396 20,5.558 19.133,4.69 18.858,4.415 12.391,10.885 10.198,13.08 9.96,13.318 
		9.722,13.08 5.572,8.928 1.163,4.518 0.162,5.462 0,5.614 4.087,9.702 9.971,15.586 	"/>
	<path fill="#606468" d="M4.087,9.702L0,5.614l0.162-0.153l1.001-0.944l4.409,4.41l4.15,4.152l0.238,0.238l0.238-0.238l2.194-2.195
		l6.467-6.47l0.275,0.275L20,5.558l-2.838,2.838l-7.191,7.19L4.087,9.702z"/>
</g>
</svg>
