<svg xmlns="http://www.w3.org/2000/svg" width="18" height="18" viewBox="0 0 18 18">
    <path fill="#003C5A" fill-rule="nonzero" stroke="#003C5A" stroke-width=".5" d="M16.937 15.49l-1.098-3.197a7.848 7.848 0 0 0 .81-3.456A7.777 7.777 0 0 0 14.4 3.345a7.77 7.77 0 0 0-5.45-2.344 7.794 7.794 0 0 0-5.66 2.29 7.793 7.793 0 0 0-2.29 5.66 7.77 7.77 0 0 0 2.344 5.45 7.777 7.777 0 0 0 5.48 2.247h.012a7.848 7.848 0 0 0 3.456-.81l3.196 1.1a1.132 1.132 0 0 0 1.176-.272c.31-.311.415-.762.272-1.177zm-.943.505a.183.183 0 0 1-.197.045l-3.387-1.164a.475.475 0 0 0-.376.03 6.888 6.888 0 0 1-3.199.794C5.1 15.706 2.01 12.67 1.95 8.936a6.823 6.823 0 0 1 2.012-4.974A6.823 6.823 0 0 1 8.936 1.95c3.735.059 6.77 3.148 6.764 6.885a6.89 6.89 0 0 1-.795 3.2.474.474 0 0 0-.029.375l1.164 3.388a.183.183 0 0 1-.046.197z"/>
</svg>
