<svg xmlns="http://www.w3.org/2000/svg" width="16" height="16" viewBox="0 0 16 16">
    <g fill="none" fill-rule="nonzero" stroke="#003C5A" stroke-width=".5">
        <path fill="#003C5A" d="M15.055 13.768l-.976-2.841c.47-.95.718-2.008.72-3.072A6.913 6.913 0 0 0 12.8 2.973 6.907 6.907 0 0 0 7.956.89a6.928 6.928 0 0 0-5.03 2.036A6.927 6.927 0 0 0 .89 7.956a6.907 6.907 0 0 0 2.083 4.845 6.913 6.913 0 0 0 4.87 1.998h.012a6.976 6.976 0 0 0 3.072-.72l2.841.976a1.006 1.006 0 0 0 1.045-.242c.276-.275.369-.676.242-1.045z"/>
        <path fill="#FFC828" d="M14.217 14.217a.163.163 0 0 1-.175.04l-3.01-1.034a.422.422 0 0 0-.335.026c-.87.46-1.853.705-2.844.706-3.32.006-6.067-2.692-6.12-6.012a6.065 6.065 0 0 1 1.79-4.42 6.065 6.065 0 0 1 4.42-1.79c3.32.053 6.017 2.798 6.012 6.12a6.124 6.124 0 0 1-.706 2.844.422.422 0 0 0-.026.334l1.035 3.011a.163.163 0 0 1-.04.175z"/>
    </g>
</svg>
