<svg xmlns="http://www.w3.org/2000/svg" width="48" height="48" viewBox="0 0 48 48">
    <path fill="#666A6C" fill-rule="nonzero" d="M47.892 29.024V11.793a1.08 1.08 0 0 0-.047-.324l-.001-.003a1.097 1.097 0 0 0-.036-.1c-.004-.01-.01-.018-.013-.027a1.13 1.13 0 0 0-.077-.142l-.01-.014a1.076 1.076 0 0 0-.086-.113l-.018-.019a1.06 1.06 0 0 0-.091-.088l-.015-.013a1.085 1.085 0 0 0-.114-.081l-.028-.017a1.093 1.093 0 0 0-.114-.058l-.013-.006L21.72.084 21.71.081l-.03-.01a1.076 1.076 0 0 0-.476-.067h-.009c-.071.008-.141.022-.21.042l-.012.005a1.1 1.1 0 0 0-.088.031l-.004.002-7.484 3.14a1.081 1.081 0 0 0 0 1.994l6.82 2.861v9.53L.772 25.77l-.04.02-.038.018c-.03.016-.06.033-.089.051l-.013.008-.003.002c-.036.024-.07.05-.103.078l-.01.009c-.027.024-.053.05-.078.076l-.021.024a1.07 1.07 0 0 0-.057.072l-.02.028c-.02.028-.038.058-.055.087l-.01.017a1.102 1.102 0 0 0-.05.109l-.01.03a1.117 1.117 0 0 0-.054.213l-.004.03a1.079 1.079 0 0 0-.008.129v9.229c0 .435.261.828.663.997l25.504 10.701c.068.029.138.05.212.066l.02.003a1.039 1.039 0 0 0 .386 0l.02-.003c.074-.015.145-.037.212-.066l20.104-8.435c.402-.169.663-.562.663-.997v-9.23-.01zm-12.084 3.452l-6.827-2.864a1.08 1.08 0 1 0-.836 1.993l4.87 2.043-6.315 2.65-11.714-4.915 6.314-2.65 3.84 1.612a1.081 1.081 0 1 0 .837-1.994l-3.596-1.509v-6.887l21.635 9.077-8.208 3.444zm-15.59-5.634l-8.026 3.368-8.208-3.444 16.235-6.811v6.887zM21.3 2.253l22.717 9.532-4.69 1.967-17.602-7.386c-.003 0-.006-.002-.01-.004l-5.104-2.141L21.3 2.253zM38.9 15.918a1.08 1.08 0 0 0 .845.003l5.984-2.51v13.995L22.38 17.61V8.986l16.52 6.932zM2.271 28.392l23.348 9.797v6.888L2.27 35.28v-6.888zm43.459 9.154l-17.949 7.53V38.19l17.949-7.53v6.887z"/>
</svg>
