<svg xmlns="http://www.w3.org/2000/svg" width="17" height="17" viewBox="0 0 17 17">
    <path fill="#FFF" fill-rule="nonzero" d="M9.297 10.256h4.14a5.268 5.268 0 0 1-5 3.51c-2.795-.02-5.107-2.257-5.215-5.05a5.265 5.265 0 0 1 5.255-5.468c1.358 0 2.597.517 3.53 1.365a.57.57 0 0 0 .776-.003l1.52-1.431a.568.568 0 0 0 .002-.827 8.446 8.446 0 0 0-5.66-2.32C3.973-.06.034 3.772 0 8.447a8.477 8.477 0 0 0 16.94.537c.007-.056.011-1.946.011-1.946H9.297a.568.568 0 0 0-.568.568v2.082c0 .314.254.568.568.568z"/>
</svg>
