<svg xmlns="http://www.w3.org/2000/svg" width="32" height="32" viewBox="0 0 32 32">
    <g fill="none" fill-rule="nonzero">
        <path fill="#FFC828" d="M12 22h8v2h-8z"/>
        <path fill="#003C5A" stroke="#003C5A" stroke-width=".2" d="M14.188 4.189c-3.177.664-5.753 3.215-6.43 6.411-.573 2.7.132 5.41 1.934 7.435.881.99 1.386 2.297 1.386 3.59v1.406c0 .935.613 1.73 1.458 2.006.277 1.641 1.702 2.962 3.464 2.962 1.761 0 3.186-1.32 3.464-2.962a2.113 2.113 0 0 0 1.458-2.006v-1.407c0-1.294.507-2.586 1.427-3.636a8.419 8.419 0 0 0 2.088-5.551c0-5.323-4.872-9.371-10.25-8.248zM16 26.593c-.904 0-1.696-.622-1.989-1.458h3.978c-.293.836-1.085 1.458-1.989 1.458zm3.516-3.562a.704.704 0 0 1-.703.703h-5.625a.704.704 0 0 1-.704-.703v-.703h7.032v.703zm1.775-5.97c-.98 1.12-1.584 2.468-1.737 3.86h-7.108a6.949 6.949 0 0 0-1.703-3.82c-1.502-1.689-2.089-3.952-1.61-6.209.559-2.635 2.706-4.776 5.342-5.327 4.501-.94 8.556 2.44 8.556 6.872a7.013 7.013 0 0 1-1.74 4.625z"/>
        <path fill="#FFC828" d="M6.11 12.437H4.702a.703.703 0 0 0 0 1.406H6.11a.703.703 0 0 0 0-1.406zM6.4 8.921l-.994-.994a.703.703 0 1 0-.994.994l.994.995a.703.703 0 1 0 .995-.995zM6.4 16.365a.703.703 0 0 0-.994 0l-.994.994a.703.703 0 1 0 .994.994l.995-.994a.703.703 0 0 0 0-.994zM27.297 12.437H25.89a.703.703 0 0 0 0 1.406h1.406a.703.703 0 0 0 0-1.406zM27.588 7.927a.703.703 0 0 0-.994 0l-.995.994a.703.703 0 1 0 .995.995l.994-.995a.703.703 0 0 0 0-.994zM27.588 17.359l-.994-.994a.703.703 0 1 0-.995.994l.995.994a.703.703 0 0 0 .994-.994z"/>
    </g>
</svg>
