<svg xmlns="http://www.w3.org/2000/svg" width="14" height="14" viewBox="0 0 14 14">
    <g fill="#666A6C" fill-rule="nonzero">
        <path d="M0 12.509c0 .814.663 1.474 1.474 1.474H12.51c.814 0 1.474-.663 1.474-1.474V1.474C13.983.66 13.32 0 12.509 0H1.474C.66 0 0 .663 0 1.474V12.51zm12.509.774H1.474a.777.777 0 0 1-.774-.774v-1.843l2.651-2.652 2.266 2.266a.348.348 0 0 0 .494 0l4.092-4.091 3.08 3.08v3.24a.777.777 0 0 1-.774.774zM1.474.7H12.51c.425 0 .774.349.774.774v6.803l-2.834-2.831a.348.348 0 0 0-.495 0L5.863 9.537 3.597 7.271a.348.348 0 0 0-.494 0L.7 9.674v-8.2C.7 1.05 1.049.7 1.474.7z"/>
        <path d="M4.334 5.603c.983 0 1.78-.8 1.78-1.78s-.8-1.78-1.78-1.78-1.78.8-1.78 1.78.797 1.78 1.78 1.78zm0-2.86a1.081 1.081 0 0 1 0 2.16 1.081 1.081 0 0 1 0-2.16z"/>
    </g>
</svg>
