<svg xmlns="http://www.w3.org/2000/svg" width="84" height="82" viewBox="0 0 84 82">
    <g fill="none" fill-rule="nonzero">
        <path fill="#6CC620" d="M40.737 80.355c-21.782 0-39.503-17.722-39.503-39.503 0-21.782 17.721-39.503 39.503-39.503 21.781 0 39.503 17.721 39.503 39.503 0 21.781-17.722 39.503-39.503 39.503z"/>
        <path fill="#FFF" d="M77.094 14.479l1.175-1.18A2.633 2.633 0 1 1 82 17.016L36.714 62.473a2.624 2.624 0 0 1-1.86.775 2.624 2.624 0 0 1-1.864-.768L15.237 44.793a2.633 2.633 0 1 1 3.717-3.73L34.84 56.89l38.556-38.7"/>
        <path fill="#222" d="M77.89 27.342c-.647.212-1 .91-.787 1.557a38.246 38.246 0 0 1 1.903 11.88c.02 10.223-3.943 19.84-11.158 27.082-7.214 7.242-16.817 11.24-27.04 11.26h-.072C19.667 79.12 2.507 62 2.467 40.924c-.019-10.222 3.944-19.84 11.158-27.082C20.84 6.6 30.442 2.602 40.665 2.582a38.393 38.393 0 0 1 28.088 12.2 1.233 1.233 0 1 0 1.806-1.681 40.593 40.593 0 0 0-13.318-9.504A40.43 40.43 0 0 0 40.74.115h-.08c-10.88.02-21.103 4.277-28.782 11.986C4.198 19.809-.02 30.047 0 40.928c.02 10.881 4.277 21.103 11.986 28.783 7.69 7.661 17.896 11.877 28.748 11.877h.08c10.88-.02 21.102-4.277 28.782-11.985 7.68-7.709 11.898-17.947 11.877-28.828a40.7 40.7 0 0 0-2.026-12.646c-.213-.648-.91-1-1.557-.787z"/>
        <path fill="#222" d="M82.865 12.418a3.84 3.84 0 0 0-2.73-1.128h-.008a3.838 3.838 0 0 0-2.731 1.138l-1.176 1.18a1.234 1.234 0 0 0 1.748 1.741l1.176-1.18c.263-.265.614-.411.988-.412h.003a1.401 1.401 0 0 1 .991 2.388L35.84 61.603c-.263.264-.614.41-.988.411h-.002a1.39 1.39 0 0 1-.988-.408L16.107 43.919a1.39 1.39 0 0 1-.411-.988c-.001-.374.144-.726.408-.991s.615-.411.989-.412h.002c.373 0 .724.145.988.408L33.97 57.764c.232.23.545.36.871.36h.002c.328 0 .641-.131.872-.363l38.556-38.7a1.233 1.233 0 1 0-1.748-1.742L34.838 55.146 19.825 40.189a3.84 3.84 0 0 0-2.73-1.128h-.007a3.838 3.838 0 0 0-2.732 1.138 3.842 3.842 0 0 0-1.128 2.736 3.84 3.84 0 0 0 1.138 2.732L32.12 63.353a3.841 3.841 0 0 0 2.73 1.128h.007a3.838 3.838 0 0 0 2.732-1.138l45.286-45.457a3.872 3.872 0 0 0-.01-5.468z"/>
    </g>
</svg>
