<svg xmlns="http://www.w3.org/2000/svg" width="117" height="40" viewBox="0 0 117 40">
    <g fill="none" fill-rule="nonzero">
        <path fill="#D62328" d="M.491 17.455S12.547 6.502 37.76 8.492c0 0 14.56-8.658 22.535-8.438 0 0 45.01 1.235 56.05 17.4 0 0-30.833-8.501-45.452-4.33 0 0 9.499-5.724 28.208-2.997 0 0-13.661-6.941-41.24-7.749 0 0-9.51.95-18.597 8.608-.127.112-18.952-3.565-38.773 6.469z"/>
        <path fill="#454546" d="M9.972 26.006c0 1.618-.435 2.88-1.305 3.784-.87.905-2.088 1.358-3.654 1.358-1.501 0-2.696-.463-3.583-1.388-.888-.926-1.332-2.177-1.332-3.754 0-1.612.435-2.865 1.306-3.758.87-.894 2.09-1.34 3.662-1.34.971 0 1.83.206 2.575.62a4.232 4.232 0 0 1 1.724 1.776c.405.771.607 1.672.607 2.702zm-6.408 0c0 .85.114 1.497.34 1.942.228.445.609.668 1.144.668.53 0 .904-.223 1.122-.668.218-.445.328-1.092.328-1.942 0-.844-.111-1.481-.332-1.912-.221-.43-.6-.646-1.135-.646-.524 0-.9.214-1.126.642-.227.427-.34 1.066-.34 1.916zM18.16 30.973v-5.395c0-.657-.094-1.154-.283-1.488-.19-.335-.494-.502-.913-.502-.576 0-.992.23-1.248.69-.256.459-.384 1.248-.384 2.365v4.33h-3.413v-9.891h2.575l.427 1.222h.201c.291-.465.694-.815 1.21-1.047.514-.233 1.107-.35 1.776-.35 1.094 0 1.945.318 2.553.952.608.634.912 1.528.912 2.68v6.434H18.16zM28.671 31.148c-1.647 0-2.926-.438-3.837-1.314-.91-.876-1.366-2.123-1.366-3.74 0-1.671.422-2.953 1.266-3.846.844-.894 2.048-1.34 3.614-1.34 1.49 0 2.64.388 3.453 1.165.812.777 1.218 1.896 1.218 3.356v1.52h-6.103c.024.553.226.986.607 1.3.381.315.9.472 1.559.472.599 0 1.15-.057 1.654-.17a8.206 8.206 0 0 0 1.637-.581v2.453a6.014 6.014 0 0 1-1.659.567c-.57.105-1.252.158-2.043.158zm-.2-7.918c-.402 0-.738.126-1.01.38-.27.253-.428.65-.475 1.191h2.933c-.011-.477-.147-.858-.405-1.143-.26-.285-.607-.428-1.044-.428z"/>
        <path fill="#D62328" d="M43.564 30.973h-9.262v-2.27l3.116-3.151c.89-.931 1.473-1.567 1.746-1.908.274-.34.464-.632.572-.877.108-.244.162-.5.162-.768 0-.332-.108-.594-.323-.786-.216-.192-.518-.288-.908-.288-.402 0-.808.115-1.218.345-.41.23-.875.569-1.393 1.017l-1.894-2.217c.658-.588 1.21-1.009 1.659-1.262a5.923 5.923 0 0 1 1.462-.58 7.224 7.224 0 0 1 1.777-.201c.826 0 1.564.146 2.213.436.648.291 1.152.706 1.51 1.244a3.2 3.2 0 0 1 .537 1.812c0 .5-.063.963-.188 1.388a4.907 4.907 0 0 1-.58 1.253c-.262.41-.61.842-1.043 1.296-.434.454-1.358 1.315-2.772 2.584v.087h4.827v2.846z"/>
        <path fill="#454546" d="M49.928 31.148c-1.618 0-2.844-.437-3.68-1.31-.835-.873-1.252-2.127-1.252-3.762 0-1.642.45-2.913 1.353-3.815.902-.902 2.185-1.354 3.85-1.354 1.146 0 2.226.25 3.238.751l-1.004 2.523c-.413-.18-.794-.324-1.143-.432a3.683 3.683 0 0 0-1.091-.161c-.553 0-.981.215-1.284.646-.302.43-.454 1.039-.454 1.824 0 1.583.585 2.375 1.755 2.375 1 0 1.961-.291 2.88-.873v2.715c-.878.582-1.934.873-3.168.873zM61.513 30.973l-.655-1.31h-.07c-.46.571-.928.96-1.406 1.17-.477.21-1.094.315-1.85.315-.931 0-1.665-.28-2.2-.838-.536-.559-.803-1.345-.803-2.357 0-1.054.366-1.838 1.1-2.353.733-.515 1.795-.804 3.186-.869l1.65-.052v-.14c0-.814-.402-1.222-1.205-1.222-.722 0-1.638.245-2.75.734l-.986-2.253c1.152-.594 2.607-.89 4.365-.89 1.268 0 2.25.314 2.946.943.695.628 1.043 1.507 1.043 2.636v6.486h-2.365zm-2.532-2.235c.413 0 .767-.13 1.06-.393.294-.261.441-.602.441-1.02v-.77l-.785.036c-1.124.04-1.685.454-1.685 1.24 0 .605.323.907.969.907zM72.172 20.908c.297 0 .579.023.847.07l.192.034-.306 3.222c-.28-.07-.666-.105-1.161-.105-.745 0-1.286.17-1.624.51-.338.341-.506.832-.506 1.472v4.862H66.2v-9.89h2.54l.533 1.58h.165a3.418 3.418 0 0 1 1.192-1.27c.51-.324 1.023-.485 1.54-.485z"/>
        <path fill="#D62328" d="M74.162 29.524c0-.535.159-.949.476-1.24.317-.29.778-.436 1.383-.436.577 0 1.019.146 1.327.436.309.291.463.705.463 1.24 0 .524-.158.933-.476 1.227-.317.293-.755.44-1.314.44-.576 0-1.03-.145-1.361-.436-.332-.291-.498-.701-.498-1.23zM84.262 31.148c-1.618 0-2.844-.437-3.68-1.31-.834-.873-1.252-2.127-1.252-3.762 0-1.642.451-2.913 1.353-3.815.902-.902 2.186-1.354 3.85-1.354 1.147 0 2.226.25 3.239.751l-1.004 2.523c-.413-.18-.794-.324-1.143-.432a3.684 3.684 0 0 0-1.092-.161c-.553 0-.98.215-1.283.646-.303.43-.454 1.039-.454 1.824 0 1.583.585 2.375 1.755 2.375 1 0 1.96-.291 2.88-.873v2.715c-.879.582-1.935.873-3.169.873zM98.841 26.006c0 1.618-.435 2.88-1.305 3.784-.87.905-2.088 1.358-3.653 1.358-1.502 0-2.696-.463-3.584-1.388-.887-.926-1.331-2.177-1.331-3.754 0-1.612.435-2.865 1.305-3.758.87-.894 2.09-1.34 3.662-1.34.972 0 1.83.206 2.575.62a4.233 4.233 0 0 1 1.725 1.776c.404.771.606 1.672.606 2.702zm-6.407 0c0 .85.113 1.497.34 1.942.227.445.608.668 1.144.668.529 0 .903-.223 1.121-.668.219-.445.328-1.092.328-1.942 0-.844-.11-1.481-.332-1.912-.221-.43-.6-.646-1.135-.646-.524 0-.9.214-1.126.642-.227.427-.34 1.066-.34 1.916zM112.931 30.973v-5.377c0-.67-.092-1.172-.275-1.506-.183-.335-.473-.502-.869-.502-.523 0-.908.224-1.152.672-.244.448-.367 1.15-.367 2.104v4.61h-3.422v-5.378c0-.67-.087-1.171-.262-1.506-.174-.335-.457-.502-.846-.502-.536 0-.926.239-1.17.716-.245.477-.367 1.257-.367 2.34v4.33h-3.413v-9.892h2.575l.428 1.223h.2c.262-.454.642-.8 1.14-1.04.497-.238 1.063-.357 1.697-.357 1.426 0 2.427.433 3.003 1.3h.27c.28-.407.669-.726 1.166-.956a3.877 3.877 0 0 1 1.646-.345c1.17 0 2.034.3 2.593.9.559.6.838 1.51.838 2.732v6.434h-3.413z"/>
        <g>
            <path fill="#454546" d="M19.373 39.802h-.949v-3.684H17.21v-.789h3.377v.79h-1.214v3.683zM24.94 39.802h-.945v-1.93h-1.771v1.93h-.948v-4.473h.948v1.753h1.771v-1.753h.946zM28.808 39.802l-.324-1.065h-1.63l-.325 1.065h-1.022l1.579-4.491h1.159l1.585 4.491h-1.022zm-.55-1.86c-.3-.965-.47-1.51-.507-1.637a4.657 4.657 0 0 1-.081-.3c-.067.261-.26.907-.578 1.937h1.165zM30.393 39.802v-4.473h.948v4.473h-.948zM32.467 39.802v-4.473h.949v3.69h1.814v.783h-2.763zM38.745 39.802l-.324-1.065h-1.63l-.325 1.065h-1.022l1.579-4.491h1.16l1.584 4.491h-1.022zm-.55-1.86c-.3-.965-.469-1.51-.507-1.637a4.657 4.657 0 0 1-.08-.3c-.068.261-.26.907-.58 1.937h1.167zM44.298 39.802h-1.205l-1.946-3.384h-.028c.04.598.059 1.024.059 1.28v2.104h-.848v-4.473h1.196l1.943 3.35h.022c-.031-.581-.046-.992-.046-1.233V35.33h.853v4.473zM49.135 37.523c0 .736-.21 1.3-.628 1.692-.42.391-1.025.587-1.816.587h-1.267V35.33h1.404c.73 0 1.298.193 1.701.578.404.386.606.924.606 1.616zm-.985.024c0-.96-.424-1.44-1.273-1.44h-.504v2.912h.406c.914 0 1.371-.49 1.371-1.472zM50.742 35.329l.042.067c-.102.402-.281.89-.538 1.466h-.67c.14-.604.243-1.115.306-1.533h.86zM54.061 38.56c0 .404-.145.722-.436.954-.29.233-.695.35-1.213.35-.477 0-.9-.09-1.267-.27v-.881c.302.134.558.23.767.284.209.056.4.083.574.083.208 0 .367-.04.478-.12.112-.079.167-.197.167-.354a.393.393 0 0 0-.073-.234.818.818 0 0 0-.216-.198 5.527 5.527 0 0 0-.58-.302 2.743 2.743 0 0 1-.615-.37 1.393 1.393 0 0 1-.327-.414 1.178 1.178 0 0 1-.122-.55c0-.396.134-.707.402-.934.268-.226.639-.34 1.112-.34.233 0 .454.029.666.083.21.056.431.133.662.233l-.306.737a4.472 4.472 0 0 0-.592-.205 1.908 1.908 0 0 0-.46-.058c-.18 0-.318.042-.414.126a.414.414 0 0 0-.144.327c0 .084.02.157.058.22.04.061.1.121.186.18.084.058.285.162.6.313.419.2.705.4.86.601.156.2.233.447.233.739z"/>
            <path fill="#D72328" d="M60.468 39.802h-1.206l-1.946-3.384h-.027c.039.598.058 1.024.058 1.28v2.104H56.5v-4.473h1.196l1.943 3.35h.021c-.03-.581-.046-.992-.046-1.233V35.33h.854v4.473zM65.653 37.56c0 .74-.183 1.309-.55 1.707-.368.397-.894.596-1.579.596-.685 0-1.212-.199-1.579-.596-.367-.398-.55-.97-.55-1.714s.184-1.313.552-1.705c.368-.393.896-.59 1.583-.59.688 0 1.213.198 1.577.594.365.396.546.965.546 1.707zm-3.264 0c0 .5.095.876.285 1.128.19.253.473.38.85.38.757 0 1.135-.503 1.135-1.509 0-1.007-.376-1.511-1.129-1.511-.377 0-.662.127-.853.38-.192.255-.288.632-.288 1.131zM66.375 39.365c0-.172.046-.301.138-.389.092-.088.225-.132.4-.132.17 0 .301.045.394.135.093.09.14.218.14.385a.511.511 0 0 1-.142.381.533.533 0 0 1-.391.14c-.172 0-.304-.046-.398-.137-.094-.09-.14-.218-.14-.383zM70.393 39.802h-.946v-2.588l.01-.426.015-.465c-.157.157-.266.26-.328.31l-.514.413-.456-.57 1.441-1.147h.778v4.473z"/>
            <path fill="#454546" d="M75.471 36.054c-.357 0-.633.134-.829.403-.196.268-.293.642-.293 1.12 0 .998.374 1.497 1.122 1.497.314 0 .695-.079 1.142-.236v.796c-.368.153-.778.23-1.23.23-.65 0-1.149-.198-1.493-.593-.345-.394-.517-.96-.517-1.7 0-.464.084-.872.254-1.222.169-.35.412-.618.73-.804.317-.187.688-.28 1.115-.28.434 0 .87.105 1.309.315l-.306.771a5.034 5.034 0 0 0-.505-.208 1.502 1.502 0 0 0-.499-.089zM80.302 39.802l-.324-1.065h-1.63l-.325 1.065h-1.022l1.579-4.491h1.16l1.584 4.491h-1.022zm-.55-1.86c-.3-.965-.47-1.51-.507-1.637a4.657 4.657 0 0 1-.08-.3c-.068.261-.261.907-.58 1.937h1.167zM82.836 38.086v1.716h-.949v-4.473h1.303c.608 0 1.058.11 1.35.332.291.221.437.557.437 1.008 0 .263-.072.497-.217.702-.145.205-.35.366-.615.482a185.398 185.398 0 0 0 1.316 1.949h-1.053l-1.067-1.716h-.505zm0-.771h.306c.3 0 .52-.05.663-.15.143-.1.215-.257.215-.471 0-.213-.073-.363-.22-.453-.145-.09-.37-.135-.677-.135h-.287v1.209zM90.291 38.56c0 .404-.145.722-.436.954-.29.233-.695.35-1.213.35-.477 0-.9-.09-1.266-.27v-.881c.302.134.557.23.766.284.21.056.4.083.574.083.208 0 .368-.04.479-.12.11-.079.166-.197.166-.354a.393.393 0 0 0-.073-.234.82.82 0 0 0-.216-.198 5.527 5.527 0 0 0-.58-.302 2.743 2.743 0 0 1-.614-.37 1.39 1.39 0 0 1-.328-.414 1.178 1.178 0 0 1-.122-.55c0-.396.134-.707.402-.934.268-.226.64-.34 1.112-.34.233 0 .455.029.666.083.21.056.432.133.662.233l-.306.737a4.471 4.471 0 0 0-.592-.205 1.907 1.907 0 0 0-.46-.058c-.18 0-.318.042-.413.126a.414.414 0 0 0-.144.327c0 .084.02.157.058.22.039.061.1.121.185.18.085.058.285.162.601.313.418.2.705.4.86.601.155.2.232.447.232.739zM91.102 39.802v-4.473h.949v4.473h-.949zM94.902 39.802h-.948v-3.684h-1.215v-.789h3.378v.79h-1.215v3.683zM99.381 39.802h-2.576v-4.473h2.576v.777h-1.627v.982h1.514v.777h-1.514v1.154h1.627z"/>
        </g>
    </g>
</svg>
