<svg xmlns="http://www.w3.org/2000/svg" width="18" height="18" viewBox="0 0 18 18">
    <g fill="none" fill-rule="nonzero">
        <path fill="#003C5A" d="M16.539 2.493a4.953 4.953 0 0 0-3.526-1.46 4.955 4.955 0 0 0-3.527 1.46l-.464.464-.464-.464a4.954 4.954 0 0 0-3.526-1.46 4.954 4.954 0 0 0-3.526 1.46 4.992 4.992 0 0 0 0 7.052l6.967 6.968a.76.76 0 0 0 .404.211.772.772 0 0 0 .694-.211l6.968-6.968a4.992 4.992 0 0 0 0-7.052z"/>
        <path fill="#FFC828" d="M15.45 8.456l-6.428 6.427-6.427-6.427a3.45 3.45 0 0 1 0-4.874 3.424 3.424 0 0 1 2.437-1.009c.92 0 1.786.358 2.436 1.01l1.01 1.009c.289.288.8.288 1.09 0l1.008-1.01a3.423 3.423 0 0 1 2.437-1.009c.92 0 1.786.358 2.436 1.01a3.45 3.45 0 0 1 0 4.873z"/>
    </g>
</svg>
