<svg xmlns="http://www.w3.org/2000/svg" width="32" height="32" viewBox="0 0 32 32">
    <g fill="none" fill-rule="nonzero" transform="translate(6 5)">
        <circle cx="9.5" cy="20.5" r="1.5" fill="#FFC828"/>
        <path fill="#FFC828" d="M1.006 1h18v3h-18z"/>
        <path fill="#003C5A" d="M19.264 0H.736a.73.73 0 0 0-.73.73v2.99c0 .403.327.73.73.73h18.528a.73.73 0 0 0 .73-.73V.73a.73.73 0 0 0-.73-.73zm-.729 2.99H1.465V1.46h17.07v1.532z"/>
        <path fill="#003C5A" d="M17.343 3.72V13.74H2.657V3.72h-1.46v10.748c0 .403.327.73.73.73h16.146a.73.73 0 0 0 .73-.73V3.72h-1.46z"/>
        <path fill="#003C5A" d="M9.271 14.468h1.459v4.547H9.271z"/>
        <path fill="#003C5A" d="M10 18.286a2.288 2.288 0 0 0-2.286 2.285A2.288 2.288 0 0 0 10 22.857a2.288 2.288 0 0 0 2.286-2.286A2.288 2.288 0 0 0 10 18.286zm0 3.112a.828.828 0 0 1 0-1.653.828.828 0 0 1 0 1.653z"/>
    </g>
</svg>
