<svg xmlns="http://www.w3.org/2000/svg" width="16" height="16" viewBox="0 0 16 16">
    <g fill="#666A6C" fill-rule="nonzero" stroke="#666A6C" stroke-width=".1">
        <path d="M8 1C4.14 1 1 4.14 1 8s3.14 7 7 7 7-3.14 7-7-3.14-7-7-7zm0 13.391A6.398 6.398 0 0 1 1.609 8 6.398 6.398 0 0 1 8 1.609 6.398 6.398 0 0 1 14.391 8 6.398 6.398 0 0 1 8 14.391z"/>
        <path d="M6.478 6.783a.914.914 0 0 0-1.826 0 .914.914 0 0 0 1.826 0zm-1.217 0a.305.305 0 1 1 .61 0 .305.305 0 0 1-.61 0zM10.435 5.87a.914.914 0 0 0 0 1.826.914.914 0 0 0 0-1.826zm0 1.217a.305.305 0 1 1 0-.61.305.305 0 0 1 0 .61zM10.942 9.6a.304.304 0 0 0-.43.023A3.371 3.371 0 0 1 8 10.74a3.372 3.372 0 0 1-2.512-1.116.304.304 0 1 0-.454.406A3.982 3.982 0 0 0 8 11.348c1.135 0 2.216-.481 2.966-1.319a.305.305 0 0 0-.024-.43z"/>
    </g>
</svg>
