<svg xmlns="http://www.w3.org/2000/svg" width="150" height="48" viewBox="0 0 150 48">
    <g fill="none" fill-rule="nonzero">
        <g fill="#003C5A">
            <path d="M24.227 27.666c-1.625 0-2.873.643-3.78 1.965-.907 1.323-1.36 3.138-1.36 5.443 0 4.8 1.814 7.219 5.48 7.219 1.096 0 2.192-.151 3.213-.454 1.02-.302 2.078-.68 3.137-1.096v5.707c-2.08.907-4.46 1.399-7.068 1.399-3.78 0-6.652-1.096-8.693-3.288-2.003-2.192-3.024-5.367-3.024-9.487 0-2.608.492-4.876 1.474-6.84.983-1.966 2.381-3.478 4.196-4.536 1.814-1.059 3.968-1.588 6.463-1.588 2.72 0 5.29.605 7.748 1.777l-2.08 5.329a27.897 27.897 0 0 0-2.758-1.096c-.907-.303-1.89-.454-2.948-.454zM47.206 47.509l-1.285-2.57h-.15c-.908 1.133-1.815 1.89-2.76 2.305-.945.416-2.154.605-3.628.605-1.814 0-3.25-.53-4.309-1.625-1.058-1.096-1.587-2.646-1.587-4.611 0-2.08.718-3.591 2.154-4.611 1.436-1.02 3.515-1.588 6.236-1.701l3.25-.114v-.264c0-1.588-.793-2.381-2.343-2.381-1.398 0-3.212.491-5.404 1.436l-1.928-4.422c2.268-1.172 5.102-1.739 8.542-1.739 2.494 0 4.422.605 5.782 1.852 1.361 1.248 2.041 2.948 2.041 5.178v12.7h-4.61v-.038zm-4.95-4.385c.793 0 1.51-.264 2.078-.755.567-.53.87-1.172.87-2.004v-1.511l-1.55.075c-2.193.076-3.289.907-3.289 2.419 0 1.172.643 1.776 1.89 1.776zM66.898 27.78a8.01 8.01 0 0 1 1.663.15l.378.076-.605 6.312c-.53-.151-1.323-.189-2.268-.189-1.474 0-2.532.34-3.175.983-.68.68-.982 1.625-.982 2.872v9.525H55.18v-19.39h4.99l1.057 3.1h.34a6.735 6.735 0 0 1 2.344-2.495c.945-.642 1.965-.944 2.986-.944z"/>
        </g>
        <path fill="#003C5A" d="M12.17 20.485S26.154 7.748 55.446 10.091c0 0 16.894-10.053 26.154-9.789 0 0 52.233 1.437 65.083 20.22 0 0-35.792-9.864-52.762-5.026 0 0 11.036-6.652 32.769-3.477 0 0-15.874-8.05-47.85-8.995 0 0-11.035 1.096-21.58 10.015-.227.076-22.11-4.195-45.09 7.446z"/>
        <g fill="#FFC828">
            <path d="M72.151 47.622V22.148h6.766v19.994h8.92v5.48zM104.202 47.622l-1.285-2.57h-.152c-.907 1.134-1.814 1.89-2.759 2.305-.945.416-2.154.605-3.628.605-1.814 0-3.288-.567-4.309-1.663-1.058-1.096-1.587-2.645-1.587-4.649 0-2.078.718-3.628 2.154-4.61 1.436-1.021 3.515-1.588 6.274-1.701l3.25-.114v-.264c0-1.588-.793-2.42-2.38-2.42-1.437 0-3.213.492-5.405 1.437l-1.928-4.422c2.268-1.172 5.14-1.739 8.58-1.739 2.494 0 4.422.605 5.782 1.852 1.361 1.248 2.041 2.948 2.041 5.178v12.775h-4.648zm-4.99-4.384c.794 0 1.512-.265 2.08-.756.566-.53.869-1.172.869-2.003v-1.512l-1.55.076c-2.192.075-3.326.907-3.326 2.418.038 1.172.68 1.777 1.928 1.777zM124.573 27.855c2.117 0 3.78.87 5.027 2.646 1.247 1.776 1.852 4.233 1.852 7.37 0 3.175-.643 5.631-1.89 7.408-1.247 1.776-2.986 2.683-5.216 2.683-.718 0-1.36-.075-1.927-.227a6.072 6.072 0 0 1-1.512-.642c-.453-.265-.945-.718-1.55-1.36h-.415l-1.059 1.889h-5.215V22.035h6.765v4.913c0 .718-.076 1.965-.227 3.742h.227c.643-1.02 1.398-1.739 2.268-2.192.831-.416 1.814-.643 2.872-.643zm-2.456 5.254c-.945 0-1.626.34-2.041.982-.454.643-.643 1.663-.643 3.062v.945c0 1.587.227 2.72.643 3.439.453.68 1.133 1.02 2.116 1.02.794 0 1.399-.415 1.814-1.209.416-.794.643-2.003.643-3.553 0-3.137-.832-4.686-2.532-4.686zM149.631 41.65c0 2.08-.718 3.667-2.116 4.725-1.436 1.058-3.44 1.587-6.123 1.587-1.436 0-2.683-.075-3.742-.227-1.058-.15-2.154-.453-3.25-.831v-5.367c1.058.454 2.192.832 3.44 1.134 1.247.302 2.343.453 3.325.453 1.437 0 2.192-.34 2.192-.982 0-.34-.188-.643-.604-.907-.416-.265-1.588-.794-3.553-1.588-1.776-.718-3.024-1.55-3.742-2.494-.718-.945-1.058-2.117-1.058-3.553 0-1.814.68-3.213 2.079-4.233 1.398-1.02 3.364-1.512 5.934-1.512 1.285 0 2.494.151 3.628.416 1.134.264 2.305.68 3.515 1.21l-1.814 4.308a18.056 18.056 0 0 0-2.835-1.02c-.983-.265-1.814-.416-2.419-.416-1.096 0-1.663.264-1.663.793 0 .34.19.605.567.832.378.227 1.474.718 3.326 1.436 1.36.567 2.381 1.096 3.062 1.663a4.697 4.697 0 0 1 1.474 1.89c.302.718.377 1.663.377 2.683z"/>
        </g>
        <path fill="#003C5A" d="M7.219 25.55V43.69a2.097 2.097 0 0 1-2.079 2.08c.718-.492 1.058-1.248 1.058-2.269V30.236H3.1V25.55H1.02V43.69a4.146 4.146 0 0 0 4.158 4.158 4.146 4.146 0 0 0 4.157-4.158V25.55H7.22z"/>
        <g fill="#FFC828">
            <circle cx="2.381" cy="2.381" r="2.154" transform="translate(4.913 15.496)"/>
            <circle cx="1.701" cy="1.89" r="1.625" transform="translate(.756 14.362)"/>
            <circle cx="1.096" cy="1.134" r="1.058" transform="translate(1.89 18.898)"/>
            <circle cx="1.285" cy="1.096" r="1.058" transform="translate(4.913 12.472)"/>
        </g>
        <path fill="#003A5D" d="M.132 24.49v-2.078h9.978v2.079z"/>
    </g>
</svg>
