<svg xmlns="http://www.w3.org/2000/svg" width="84" height="84" viewBox="0 0 84 84">
    <g fill="none" fill-rule="nonzero">
        <path fill="#EE3939" d="M42 82.767C19.521 82.767 1.233 64.48 1.233 42 1.233 19.521 19.52 1.233 42 1.233 64.479 1.233 82.767 19.52 82.767 42c0 22.479-18.288 40.767-40.767 40.767z"/>
        <path fill="#FFF" d="M57.744 22.47l2.082-2.09a2.63 2.63 0 1 1 3.726 3.713L24.174 63.619a2.62 2.62 0 0 1-1.858.774 2.63 2.63 0 0 1-1.868-4.486l33.584-33.71"/>
        <path fill="#222" d="M71.67 12.272C63.74 4.358 53.203 0 42.001 0h-.08c-11.22.021-21.758 4.41-29.676 12.357C4.328 20.305-.021 30.86 0 42.08c.021 11.205 4.4 21.735 12.33 29.65 7.93 7.913 18.466 12.27 29.669 12.27h.08c11.219-.02 21.757-4.409 29.675-12.357C79.672 63.695 84.021 53.14 84 41.921c-.021-11.205-4.4-21.734-12.33-29.649zM42.073 81.534H42c-21.758 0-39.492-17.701-39.533-39.46-.02-10.56 4.074-20.495 11.527-27.976C21.446 6.616 31.366 2.486 41.926 2.466h.076c21.757 0 39.491 17.702 39.532 39.46.041 21.799-17.66 39.567-39.46 39.608z"/>
        <path fill="#222" d="M65.552 22.23a3.837 3.837 0 0 0-1.136-2.729 3.835 3.835 0 0 0-2.727-1.127h-.007a3.835 3.835 0 0 0-2.73 1.137l-2.081 2.09a1.233 1.233 0 1 0 1.747 1.74l2.082-2.09c.263-.265.613-.41.986-.411h.003a1.398 1.398 0 0 1 .99 2.384L23.3 62.748c-.263.265-.613.41-.986.411h-.003c-.372 0-.722-.144-.986-.407a1.388 1.388 0 0 1-.411-.987c0-.373.144-.724.407-.989l33.584-33.71a1.233 1.233 0 1 0-1.747-1.74l-33.583 33.71a3.837 3.837 0 0 0-1.127 2.733c.002 1.032.406 2.001 1.136 2.73a3.834 3.834 0 0 0 2.727 1.126h.007a3.834 3.834 0 0 0 2.73-1.137l39.377-39.526a3.837 3.837 0 0 0 1.127-2.733z"/>
        <path fill="#FFF" d="M26.053 22.47l-2.082-2.09a2.63 2.63 0 1 0-3.726 3.713l39.378 39.526a2.62 2.62 0 0 0 1.858.774 2.63 2.63 0 0 0 1.868-4.486l-33.584-33.71"/>
        <path fill="#222" d="M65.552 61.77a3.837 3.837 0 0 1-1.136 2.729 3.835 3.835 0 0 1-2.727 1.127h-.007a3.835 3.835 0 0 1-2.73-1.137l-2.081-2.09a1.233 1.233 0 1 1 1.747-1.74l2.082 2.09c.263.265.613.41.986.411h.003a1.398 1.398 0 0 0 .99-2.383L23.3 21.251a1.386 1.386 0 0 0-.986-.411h-.003c-.372 0-.722.144-.986.407-.264.264-.41.614-.411.987 0 .373.144.725.407.99l33.584 33.71a1.233 1.233 0 1 1-1.747 1.74l-33.583-33.71a3.837 3.837 0 0 1-1.127-2.734c.002-1.032.406-2.001 1.136-2.729a3.834 3.834 0 0 1 2.734-1.127 3.834 3.834 0 0 1 2.73 1.137l39.377 39.526a3.837 3.837 0 0 1 1.127 2.733z"/>
    </g>
</svg>
