<svg xmlns="http://www.w3.org/2000/svg" width="36" height="36" viewBox="0 0 36 36">
    <g fill="none" fill-rule="nonzero">
        <path fill="#003C5A" d="M33.04 23.744c.674-.875.998-1.812.956-2.778-.04-1.063-.509-1.896-.894-2.406.447-1.134.62-2.918-.875-4.303-1.094-1.014-2.953-1.469-5.527-1.343-1.81.084-3.325.427-3.387.44h-.007c-.344.064-.71.14-1.081.225-.028-.448.048-1.56.86-4.065.964-2.98.91-5.26-.179-6.786C21.764 1.126 19.94 1 19.403 1c-.517 0-.992.217-1.329.616-.764.902-.675 2.567-.578 3.337-.909 2.476-3.456 8.549-5.61 10.235a.74.74 0 0 0-.11.098 7.526 7.526 0 0 0-1.35 2.056 2.805 2.805 0 0 0-1.363-.35h-4.2C3.28 16.993 2 18.302 2 19.904v11.368c0 1.61 1.287 2.91 2.864 2.91h4.199c.613 0 1.184-.195 1.652-.531l1.618.196c.248.035 4.653.602 9.176.51.82.064 1.59.099 2.306.099 1.232 0 2.306-.098 3.201-.294 2.107-.455 3.545-1.364 4.275-2.7.558-1.022.558-2.037.468-2.68 1.37-1.26 1.611-2.652 1.563-3.631a4.792 4.792 0 0 0-.282-1.406z"/>
        <path fill="#FFC828" d="M31.277 22.925a.952.952 0 0 0-.124 1.14c0 .008.283.497.317 1.169.048.916-.385 1.728-1.294 2.42a.962.962 0 0 0-.317 1.078c0 .007.296.93-.186 1.805-.46.84-1.487 1.441-3.042 1.777-1.246.273-2.94.322-5.019.154h-.096c-4.426.098-8.901-.49-8.95-.497h-.006l-.695-.084a3.01 3.01 0 0 0 .062-.616V19.896c0-.3-.049-.595-.131-.867.124-.47.468-1.512 1.28-2.4 3.091-2.49 6.113-10.893 6.244-11.257a.9.9 0 0 0 .041-.468c-.117-.784-.075-1.742.09-2.03.365.008 1.349.113 1.941.945.702.987.675 2.75-.083 5.086-1.156 3.561-1.252 5.436-.337 6.262.454.413 1.06.434 1.5.273.42-.098.82-.182 1.199-.245l.09-.021c2.112-.469 5.899-.756 7.213.461 1.116 1.036.324 2.407.235 2.554a.946.946 0 0 0 .165 1.217c.007.007.73.7.764 1.63.027.623-.262 1.26-.86 1.89zM4.864 32.293a1.015 1.015 0 0 1-1.005-1.022V19.896c0-.567.454-1.021 1.005-1.021h4.199c.558 0 1.005.461 1.005 1.021v11.368c0 .567-.454 1.022-1.005 1.022h-4.2v.007z"/>
    </g>
</svg>
